<svg xmlns="http://www.w3.org/2000/svg" viewBox="0 0 44 44"><title>globe@1x</title><g id="Layer_2" data-name="Layer 2"><g id="Location"><g id="Globe_1_2x.png" data-name="Globe 1@2x.png"><path d="M22,0A22,22,0,1,0,44,22,22,22,0,0,0,22,0ZM16.06,2.9a14.73,14.73,0,0,0-1.24,1.5l-.11.15a20.82,20.82,0,0,0-2.13,3.83l-.1.24-.1.27A16.43,16.43,0,0,1,9.08,6.75,19.89,19.89,0,0,1,16.06,2.9ZM7.64,8.11a18.6,18.6,0,0,0,4.06,2.64l-.08.25a33.62,33.62,0,0,0-1.14,4.87c0,.22-.06.44-.09.66q-.14,1-.23,2c0,.25,0,.5-.06.76,0,.56,0,1.14-.06,1.72H2A19.94,19.94,0,0,1,7.64,8.11ZM2,23h8c0,.58,0,1.16.06,1.72,0,.26,0,.51.06.76q.09,1,.23,2c0,.22.06.44.09.66A33.57,33.57,0,0,0,11.62,33l.08.25a18.54,18.54,0,0,0-4.06,2.64A19.94,19.94,0,0,1,2,23Zm7,14.25a16.48,16.48,0,0,1,3.31-2.13c0,.09.06.18.1.27l.1.24a20.82,20.82,0,0,0,2.13,3.83l.11.15a14.63,14.63,0,0,0,1.24,1.5A19.91,19.91,0,0,1,9.08,37.25ZM21,41.9c-2.78-.55-5.21-3.38-6.85-7.54A22.44,22.44,0,0,1,21,33ZM21,31a24.27,24.27,0,0,0-7.5,1.44A35.41,35.41,0,0,1,12,23h9Zm0-10H12a35.41,35.41,0,0,1,1.48-9.49A24.3,24.3,0,0,0,21,13Zm0-10a22.44,22.44,0,0,1-6.85-1.32c1.63-4.15,4.07-7,6.85-7.54ZM42,21H34c0-.58,0-1.15-.06-1.72,0-.26,0-.51-.06-.76q-.09-1-.23-2c0-.22-.06-.44-.09-.66A33.62,33.62,0,0,0,32.38,11l-.08-.25a18.6,18.6,0,0,0,4.06-2.64A19.93,19.93,0,0,1,42,21Zm-7-14.25a16.44,16.44,0,0,1-3.31,2.13c0-.09-.06-.18-.1-.27l-.1-.24a20.79,20.79,0,0,0-2.13-3.83l-.11-.15a14.73,14.73,0,0,0-1.24-1.5A19.9,19.9,0,0,1,34.92,6.75ZM23,2.1c2.78.55,5.21,3.38,6.85,7.54A22.44,22.44,0,0,1,23,11ZM23,13a24.31,24.31,0,0,0,7.5-1.44A35.45,35.45,0,0,1,32,21H23Zm0,10h9a35.45,35.45,0,0,1-1.48,9.49A24.28,24.28,0,0,0,23,31Zm0,18.9V33a22.44,22.44,0,0,1,6.85,1.32C28.21,38.52,25.78,41.35,23,41.9Zm4.94-.8a14.63,14.63,0,0,0,1.24-1.5l.11-.15a20.79,20.79,0,0,0,2.13-3.83l.1-.24c0-.09.07-.18.1-.27a16.49,16.49,0,0,1,3.31,2.13A19.91,19.91,0,0,1,27.94,41.1Zm8.43-5.21a18.54,18.54,0,0,0-4.06-2.64l.08-.25a33.63,33.63,0,0,0,1.14-4.87c0-.22.06-.44.09-.66q.14-1,.23-2c0-.25,0-.5.06-.76,0-.56,0-1.14.06-1.72h8A19.94,19.94,0,0,1,36.36,35.89Z"/></g></g></g></svg>